HIERARCHY
ROOT Root
{
	OFFSET 0.0000 0.0000 0.0000
	CHANNELS 6 Xposition Yposition Zposition Zrotation Xrotation Yrotation
	JOINT Spine01
	{
		OFFSET 0.0000 -16.7008 118.8322
		CHANNELS 6 Xposition Yposition Zposition Zrotation Xrotation Yrotation
		JOINT Spine02
		{
			OFFSET 0.0000 11.8586 169.5859
			CHANNELS 6 Xposition Yposition Zposition Zrotation Xrotation Yrotation
			JOINT LeftShoulder
			{
				OFFSET 83.0000 21.5583 44.2746
				CHANNELS 6 Xposition Yposition Zposition Zrotation Xrotation Yrotation
				JOINT LeftArm
				{
					OFFSET 0.0000 -111.4369 141.3570
					CHANNELS 6 Xposition Yposition Zposition Zrotation Xrotation Yrotation
					JOINT LeftForeArm
					{
						OFFSET 0.0000 -172.4081 -79.8464
						CHANNELS 6 Xposition Yposition Zposition Zrotation Xrotation Yrotation
						JOINT LeftWrist
						{
							OFFSET 0.0000 -209.8784 7.1457
							CHANNELS 6 Xposition Yposition Zposition Zrotation Xrotation Yrotation
							JOINT LeftHand
							{
								OFFSET 0.0000 -64.9257 26.1658
								CHANNELS 6 Xposition Yposition Zposition Zrotation Xrotation Yrotation
								End Site
								{
									OFFSET 0.0000 -20.5704 56.3636
								}
							}
						}
					}
				}
			}
			JOINT RightShoulder
			{
				OFFSET -83.0000 21.5583 44.2746
				CHANNELS 6 Xposition Yposition Zposition Zrotation Xrotation Yrotation
				JOINT RightArm
				{
					OFFSET 0.0000 -111.4369 141.3570
					CHANNELS 6 Xposition Yposition Zposition Zrotation Xrotation Yrotation
					JOINT RightForeArm
					{
						OFFSET 0.0000 -172.4081 -79.8464
						CHANNELS 6 Xposition Yposition Zposition Zrotation Xrotation Yrotation
						JOINT RightWrist
						{
							OFFSET 0.0000 -209.8784 7.1457
							CHANNELS 6 Xposition Yposition Zposition Zrotation Xrotation Yrotation
							JOINT RightHand
							{
								OFFSET 0.0000 -64.9257 26.1658
								CHANNELS 6 Xposition Yposition Zposition Zrotation Xrotation Yrotation
								End Site
								{
									OFFSET 0.0000 -20.5704 56.3636
								}
							}
						}
					}
				}
			}
			JOINT Neck01
			{
				OFFSET 0.0000 4.1879 119.9269
				CHANNELS 6 Xposition Yposition Zposition Zrotation Xrotation Yrotation
				JOINT Neck02
				{
					OFFSET 0.0000 -14.3102 88.8550
					CHANNELS 6 Xposition Yposition Zposition Zrotation Xrotation Yrotation
					JOINT Neck03
					{
						OFFSET 0.0000 72.0997 53.8668
						CHANNELS 6 Xposition Yposition Zposition Zrotation Xrotation Yrotation
						JOINT Neck04
						{
							OFFSET 0.0000 88.9597 -13.6445
							CHANNELS 6 Xposition Yposition Zposition Zrotation Xrotation Yrotation
							JOINT Head
							{
								OFFSET 0.0000 19.3735 72.4546
								CHANNELS 6 Xposition Yposition Zposition Zrotation Xrotation Yrotation
								End Site
								{
									OFFSET 0.0000 -28.2512 167.6361
								}
								JOINT LeftEar
								{
									OFFSET 45.0000 62.4894 -9.7509
									CHANNELS 6 Xposition Yposition Zposition Zrotation Xrotation Yrotation
									End Site
									{
										OFFSET 23.1256 59.6428 28.4242
									}
								}
								JOINT RightEar
								{
									OFFSET -45.0000 62.4894 -9.7509
									CHANNELS 6 Xposition Yposition Zposition Zrotation Xrotation Yrotation
									End Site
									{
										OFFSET -23.1256 59.6428 28.4242
									}
								}
							}
						}
					}
				}
			}
		}
	}
	JOINT LeftLeg
	{
		OFFSET 75.0000 -65.3041 -110.1607
		CHANNELS 6 Xposition Yposition Zposition Zrotation Xrotation Yrotation
		JOINT LeftLowerLeg
		{
			OFFSET 0.0000 -209.4885 14.6489
			CHANNELS 6 Xposition Yposition Zposition Zrotation Xrotation Yrotation
			JOINT LeftAnkle
			{
				OFFSET 0.0000 -168.5298 -141.4133
				CHANNELS 6 Xposition Yposition Zposition Zrotation Xrotation Yrotation
				JOINT LeftFoot
				{
					OFFSET 0.0000 -96.5926 25.8819
					CHANNELS 6 Xposition Yposition Zposition Zrotation Xrotation Yrotation
					End Site
					{
						OFFSET 0.0000 -19.5341 56.7311
					}
				}
			}
		}
	}
	JOINT RightLeg
	{
		OFFSET -75.0000 -65.3041 -110.1607
		CHANNELS 6 Xposition Yposition Zposition Zrotation Xrotation Yrotation
		JOINT RightLowerLeg
		{
			OFFSET 0.0000 -209.4885 14.6489
			CHANNELS 6 Xposition Yposition Zposition Zrotation Xrotation Yrotation
			JOINT RightAnkle
			{
				OFFSET 0.0000 -168.5298 -141.4133
				CHANNELS 6 Xposition Yposition Zposition Zrotation Xrotation Yrotation
				JOINT RightFoot
				{
					OFFSET 0.0000 -96.5926 25.8819
					CHANNELS 6 Xposition Yposition Zposition Zrotation Xrotation Yrotation
					End Site
					{
						OFFSET 0.0000 -19.5341 56.7311
					}
				}
			}
		}
	}
	JOINT TailBase
	{
		OFFSET 0.0000 -22.9100 -124.3991
		CHANNELS 6 Xposition Yposition Zposition Zrotation Xrotation Yrotation
		JOINT Tail1
		{
			OFFSET 0.0000 0.0000 -67.0000
			CHANNELS 6 Xposition Yposition Zposition Zrotation Xrotation Yrotation
			JOINT Tail2
			{
				OFFSET 0.0000 0.0000 -67.0000
				CHANNELS 6 Xposition Yposition Zposition Zrotation Xrotation Yrotation
				JOINT Tail3
				{
					OFFSET 0.0000 0.0000 -67.0000
					CHANNELS 6 Xposition Yposition Zposition Zrotation Xrotation Yrotation
					JOINT Tail4
					{
						OFFSET 0.0000 0.0000 -67.0000
						CHANNELS 6 Xposition Yposition Zposition Zrotation Xrotation Yrotation
						JOINT Tail5
						{
							OFFSET 0.0000 0.0000 -67.0000
							CHANNELS 6 Xposition Yposition Zposition Zrotation Xrotation Yrotation
							JOINT Tail6
							{
								OFFSET 0.0000 0.0000 -67.0000
								CHANNELS 6 Xposition Yposition Zposition Zrotation Xrotation Yrotation
								End Site
								{
									OFFSET 0.0000 0.0000 -67.0000
								}
							}
						}
					}
				}
			}
		}
	}
}
MOTION
Frames: 4
Frame Time: 0.008342
1835.7300 600.2720 -658.6430 -10.0494 -5.9876 20.8008 -0.0000 -16.7008 118.8322 6.5202 9.7556 -13.0451 -0.0000 11.8586 169.5859 2.3507 6.0187 -10.8832 45.9019 28.1054 30.1369 9.2623 -5.0410 7.3480 0.0000 -111.4369 141.3570 12.5787 -1.6243 -0.2756 0.0000 -172.4081 -79.8464 0.0025 -9.9290 -0.0714 0.0000 -209.8784 7.1457 10.6445 17.7870 0.3825 0.0000 -64.9257 26.1658 -10.5296 -8.9078 2.1925 -76.0056 13.8944 51.4111 -2.5054 -4.3257 -10.3724 -0.0000 -111.4369 141.3570 4.3082 -0.8336 0.4977 -0.0000 -172.4081 -79.8464 0.0600 -8.7363 -1.7339 0.0000 -209.8784 7.1457 -7.8832 -6.0363 -0.2681 0.0000 -64.9257 26.1658 19.2356 7.9914 -10.0135 0.0000 4.1879 119.9269 3.4630 -6.9209 -30.2599 -0.0000 -14.3102 88.8550 14.8588 13.5834 5.0308 0.0000 72.0997 53.8668 -6.7754 -2.9272 -5.3348 0.0000 88.9597 -13.6445 1.8185 8.9655 -18.3200 0.0000 19.3735 72.4546 7.9169 -23.0186 -27.6168 56.1059 60.6857 -5.8478 -10.5653 6.4501 0.6073 -31.3293 70.1393 -4.6979 2.6263 -1.9081 3.7679 75.0000 -65.3041 -110.1607 13.2837 -6.5307 14.0111 -0.0000 -209.4885 14.6489 -0.0000 -6.0726 0.0000 0.0000 -168.5298 -141.4133 0.0000 -2.3673 0.0000 0.0000 -96.5926 25.8819 -9.5499 11.5606 5.1827 -75.0000 -65.3041 -110.1607 1.5426 -12.3794 -5.9817 -0.0000 -209.4885 14.6489 -0.0000 0.8977 0.0000 -0.0000 -168.5298 -141.4133 0.0000 13.4274 -0.0000 0.0000 -96.5926 25.8819 -3.4725 19.3755 2.2825 0.0000 -22.9100 -124.3991 3.2068 -31.7836 4.9541 -0.0000 0.0000 -67.0000 -3.5548 -26.6981 -7.8723 -0.0000 0.0000 -67.0000 0.4762 -7.2258 3.7803 0.0000 0.0000 -67.0000 0.1433 -10.7140 0.7709 -0.0000 0.0000 -67.0000 -2.5491 12.0806 12.0091 0.0000 0.0000 -67.0000 -12.6361 15.1626 40.6007 0.0000 0.0000 -67.0000 -3.7013 17.8747 11.9015 
1832.5400 600.2670 -656.2520 -10.2342 -5.8336 19.2005 -0.0000 -16.7008 118.8322 6.8738 10.0303 -13.1563 0.0000 11.8586 169.5859 2.5909 6.0786 -10.8174 46.4819 28.3288 30.1981 8.8042 -4.8988 7.5786 0.0000 -111.4369 141.3570 14.4798 -2.1026 0.1098 -0.0000 -172.4081 -79.8464 0.0257 -8.6500 -0.7420 0.0000 -209.8784 7.1457 10.1817 18.5540 0.3679 0.0000 -64.9257 26.1658 -10.7646 -8.4130 2.3410 -75.5761 13.8888 50.8263 -3.2612 -5.1317 -10.5569 -0.0000 -111.4369 141.3570 5.8319 0.4674 2.3531 0.0000 -172.4081 -79.8464 -0.0020 -8.9999 0.0583 -0.0000 -209.8784 7.1457 -6.7253 -6.4827 -0.2290 0.0000 -64.9257 26.1658 18.7174 6.8073 -9.3468 -0.0000 4.1879 119.9269 3.4497 -6.9485 -29.9866 0.0000 -14.3102 88.8550 14.7788 13.3126 5.2037 -0.0000 72.0997 53.8668 -6.8875 -2.8170 -5.2301 0.0000 88.9597 -13.6445 1.8065 8.8588 -18.0725 0.0000 19.3735 72.4546 7.9263 -23.2650 -27.5588 55.8895 60.3755 -6.1901 -10.9179 6.7910 0.6313 -31.3219 70.3053 -4.6858 2.9596 -1.5724 3.8572 75.0000 -65.3041 -110.1607 13.5901 -6.0218 14.4329 0.0000 -209.4885 14.6489 -0.0000 -5.9532 0.0000 0.0000 -168.5298 -141.4133 -0.0000 -2.5938 -0.0000 0.0000 -96.5926 25.8819 -10.1955 11.3791 5.5106 -75.0000 -65.3041 -110.1607 1.7295 -13.1340 -5.5003 0.0000 -209.4885 14.6489 0.0000 0.9789 0.0000 -0.0000 -168.5298 -141.4133 -0.0000 12.0654 0.0000 -0.0000 -96.5926 25.8819 -4.1360 20.6512 2.7955 -0.0000 -22.9100 -124.3991 3.3182 -32.0043 5.1021 0.0000 -0.0000 -67.0000 -3.6275 -26.5595 -8.0700 -0.0000 0.0000 -67.0000 0.4727 -7.3881 3.6712 0.0000 0.0000 -67.0000 0.1667 -11.0613 0.8687 -0.0000 -0.0000 -67.0000 -2.5899 12.2880 11.9990 -0.0000 0.0000 -67.0000 -12.4554 14.9776 40.5190 -0.0000 -0.0000 -67.0000 -3.7088 17.5625 12.1241 
1829.5100 600.0880 -653.5440 -10.4303 -5.7387 17.5307 0.0000 -16.7008 118.8322 6.9916 10.3525 -13.1647 0.0000 11.8586 169.5859 2.7946 6.1387 -10.7739 46.8589 28.3766 30.2648 8.6728 -4.8854 7.6885 0.0000 -111.4369 141.3570 16.2652 -2.1282 0.5631 -0.0000 -172.4081 -79.8464 0.0356 -7.6860 -1.0308 0.0000 -209.8784 7.1457 9.7488 19.9234 0.3557 0.0000 -64.9257 26.1658 -11.2821 -6.7750 2.7967 -75.4656 13.7318 50.8374 -3.4971 -5.4471 -11.1383 -0.0000 -111.4369 141.3570 7.5693 1.3094 4.8128 0.0000 -172.4081 -79.8464 -0.0324 -8.9978 0.9349 0.0000 -209.8784 7.1457 -6.3157 -7.1283 -0.2154 0.0000 -64.9257 26.1658 17.9842 5.9443 -8.6887 0.0000 4.1879 119.9269 3.4318 -6.7203 -29.7172 0.0000 -14.3102 88.8550 14.8755 12.9500 5.3738 0.0000 72.0997 53.8668 -7.0961 -2.6854 -5.0922 0.0000 88.9597 -13.6445 1.7636 8.8018 -18.0267 0.0000 19.3735 72.4546 8.0309 -23.2706 -27.2967 55.4835 60.4796 -5.9944 -11.5141 6.9444 0.7879 -31.4304 70.4366 -4.4687 3.0537 -1.2810 3.9500 75.0000 -65.3041 -110.1607 13.9163 -5.3772 15.2102 0.0000 -209.4885 14.6489 -0.0000 -5.7760 -0.0000 0.0000 -168.5298 -141.4133 0.0000 -3.0445 -0.0000 0.0000 -96.5926 25.8819 -10.7093 11.2469 5.7719 -75.0000 -65.3041 -110.1607 1.6891 -13.7941 -5.4605 0.0000 -209.4885 14.6489 0.0000 0.7016 -0.0000 -0.0000 -168.5298 -141.4133 0.0000 10.7756 0.0000 -0.0000 -96.5926 25.8819 -3.6506 21.8054 2.5260 -0.0000 -22.9100 -124.3991 3.4885 -32.0162 5.3616 0.0000 0.0000 -67.0000 -3.7055 -26.5833 -8.2348 0.0000 0.0000 -67.0000 0.4660 -7.3740 3.6259 -0.0000 0.0000 -67.0000 0.1794 -11.0518 0.9359 0.0000 0.0000 -67.0000 -2.6192 12.4403 11.9890 0.0000 -0.0000 -67.0000 -12.3505 14.9098 40.3975 0.0000 0.0000 -67.0000 -3.6794 17.2496 12.2357 
1826.5000 599.7950 -650.3570 -10.6627 -5.6283 15.8172 0.0000 -16.7008 118.8322 6.8270 10.6207 -13.0576 0.0000 11.8586 169.5859 3.0485 6.2602 -10.7048 46.6130 28.2179 30.1464 9.2411 -5.2273 7.5319 0.0000 -111.4369 141.3570 17.4655 -1.2133 1.1070 -0.0000 -172.4081 -79.8464 0.0295 -7.4790 -0.8566 0.0000 -209.8784 7.1457 9.1818 21.4638 0.3389 0.0000 -64.9257 26.1658 -11.9231 -2.3484 3.9201 -75.4118 13.1966 51.2734 -3.1936 -5.3886 -11.6938 -0.0000 -111.4369 141.3570 9.0329 1.9718 6.5877 0.0000 -172.4081 -79.8464 -0.0625 -9.1199 1.8041 0.0000 -209.8784 7.1457 -5.9448 -7.7204 -0.2030 -0.0000 -64.9257 26.1658 17.6119 5.1463 -8.2543 -0.0000 4.1879 119.9269 3.7481 -6.5012 -29.4415 -0.0000 -14.3102 88.8550 14.9447 12.4934 5.6142 0.0000 72.0997 53.8668 -7.3721 -2.6046 -4.8591 -0.0000 88.9597 -13.6445 1.6159 8.6272 -18.0912 0.0000 19.3735 72.4546 7.9731 -22.9358 -27.0008 55.3654 60.6696 -5.5445 -11.6816 6.9487 0.8430 -31.5780 70.3273 -4.4031 2.7733 -1.1686 4.0141 75.0000 -65.3041 -110.1607 14.2842 -4.7152 16.3292 0.0000 -209.4885 14.6489 -0.0000 -5.5484 -0.0000 0.0000 -168.5298 -141.4133 0.0000 -3.5185 0.0000 0.0000 -96.5926 25.8819 -11.1090 11.0472 5.9569 -75.0000 -65.3041 -110.1607 1.5318 -14.3947 -5.8629 0.0000 -209.4885 14.6489 0.0000 0.0292 0.0000 0.0000 -168.5298 -141.4133 -0.0000 9.7488 0.0000 0.0000 -96.5926 25.8819 -2.8407 22.8330 2.0052 0.0000 -22.9100 -124.3991 3.6612 -32.0415 5.6230 0.0000 0.0000 -67.0000 -3.7495 -26.6858 -8.3023 0.0000 0.0000 -67.0000 0.4491 -7.0748 3.6417 0.0000 0.0000 -67.0000 0.1828 -10.6541 0.9887 0.0000 -0.0000 -67.0000 -2.6440 12.5188 12.0266 0.0000 0.0000 -67.0000 -12.3982 14.9496 40.4365 -0.0000 0.0000 -67.0000 -3.6714 17.1336 12.2876 
